HIERARCHY
ROOT Hips
{
    OFFSET 0.000000 0.000000 0.000000
    CHANNELS 6 Xposition Yposition Zposition Zrotation Yrotation Xrotation
    JOINT Chest
    {
        OFFSET 0.000000 1.634758 -0.000000
        CHANNELS 3 Zrotation Yrotation Xrotation
        JOINT Chest2
        {
            OFFSET 0.000000 2.197341 0.000000
            CHANNELS 3 Zrotation Yrotation Xrotation
            JOINT Neck
            {
                OFFSET 0.000000 0.961544 0.000000
                CHANNELS 3 Zrotation Yrotation Xrotation
                JOINT Head
                {
                    OFFSET 0.000000 0.632542 -0.032565
                    CHANNELS 3 Zrotation Yrotation Xrotation
                    End Site
                    {
                        OFFSET -0.000001 0.439502 2.922845
                    }
                }
            }
            JOINT LeftCollar
            {
                OFFSET 0.167536 0.778237 -0.168280
                CHANNELS 3 Zrotation Yrotation Xrotation
                JOINT LeftShoulder
                {
                    OFFSET 0.831514 -0.002900 0.006458
                    CHANNELS 3 Zrotation Yrotation Xrotation
                    JOINT LeftElbow
                    {
                        OFFSET 2.272872 -0.026639 0.059314
                        CHANNELS 3 Zrotation Yrotation Xrotation
                        JOINT LeftWrist
                        {
                            OFFSET 2.081982 -0.024402 0.054333
                            CHANNELS 3 Zrotation Yrotation Xrotation
                            JOINT LeftHandThumb1
                            {
                                OFFSET 0.218903 -0.128645 0.283837
                                CHANNELS 3 Zrotation Yrotation Xrotation
                                JOINT LeftHandThumb2
                                {
                                    OFFSET 0.137157 -0.025101 0.077902
                                    CHANNELS 3 Zrotation Yrotation Xrotation
                                    JOINT LeftHandThumb3
                                    {
                                        OFFSET 0.170244 -0.067500 -0.000077
                                        CHANNELS 3 Zrotation Yrotation Xrotation
                                        End Site
                                        {
                                            OFFSET 0.236561 -0.049779 0.115747
                                        }
                                    }
                                }
                            }
                            JOINT LeftHandFore1
                            {
                                OFFSET 0.767340 -0.016076 0.196678
                                CHANNELS 3 Zrotation Yrotation Xrotation
                                JOINT LeftHandFore2
                                {
                                    OFFSET 0.213030 0.034455 0.020647
                                    CHANNELS 3 Zrotation Yrotation Xrotation
                                    JOINT LeftHandFore3
                                    {
                                        OFFSET 0.114706 0.057354 0.017777
                                        CHANNELS 3 Zrotation Yrotation Xrotation
                                        End Site
                                        {
                                            OFFSET 0.162052 0.103256 0.021074
                                        }
                                    }
                                }
                            }
                            JOINT LeftHandMiddle1
                            {
                                OFFSET 0.709887 -0.008320 0.018526
                                CHANNELS 3 Zrotation Yrotation Xrotation
                                JOINT LeftHandMiddle2
                                {
                                    OFFSET 0.167512 -0.178551 0.011088
                                    CHANNELS 3 Zrotation Yrotation Xrotation
                                    JOINT LeftHandMiddle3
                                    {
                                        OFFSET 0.122695 -0.079363 0.005534
                                        CHANNELS 3 Zrotation Yrotation Xrotation
                                        End Site
                                        {
                                            OFFSET 0.211780 -0.103532 0.007778
                                        }
                                    }
                                }
                            }
                            JOINT LeftHandRing1
                            {
                                OFFSET 0.743817 -0.005823 -0.153668
                                CHANNELS 3 Zrotation Yrotation Xrotation
                                JOINT LeftHandRing2
                                {
                                    OFFSET 0.089881 -0.340313 -0.029018
                                    CHANNELS 3 Zrotation Yrotation Xrotation
                                    JOINT LeftHandRing3
                                    {
                                        OFFSET -0.010295 -0.135693 -0.009333
                                        CHANNELS 3 Zrotation Yrotation Xrotation
                                        End Site
                                        {
                                            OFFSET -0.036800 -0.113904 -0.009554
                                        }
                                    }
                                }
                            }
                            JOINT LeftHandLittle1
                            {
                                OFFSET 0.689408 -0.053302 -0.308304
                                CHANNELS 3 Zrotation Yrotation Xrotation
                                JOINT LeftHandLittle2
                                {
                                    OFFSET 0.145134 -0.128013 -0.024556
                                    CHANNELS 3 Zrotation Yrotation Xrotation
                                    JOINT LeftHandLittle3
                                    {
                                        OFFSET 0.079185 -0.089148 -0.016696
                                        CHANNELS 3 Zrotation Yrotation Xrotation
                                        End Site
                                        {
                                            OFFSET 0.145699 -0.121575 -0.016727
                                        }
                                    }
                                }
                            }
                        }
                    }
                }
            }
            JOINT RightCollar
            {
                OFFSET -0.167536 0.778237 -0.168280
                CHANNELS 3 Zrotation Yrotation Xrotation
                JOINT RightShoulder
                {
                    OFFSET -0.831514 -0.002900 0.006457
                    CHANNELS 3 Zrotation Yrotation Xrotation
                    JOINT RightElbow
                    {
                        OFFSET -2.272872 -0.026639 0.059313
                        CHANNELS 3 Zrotation Yrotation Xrotation
                        JOINT RightWrist
                        {
                            OFFSET -2.081982 -0.024402 0.054331
                            CHANNELS 3 Zrotation Yrotation Xrotation
                            JOINT RightHandThumb1
                            {
                                OFFSET -0.218911 -0.128571 0.283837
                                CHANNELS 3 Zrotation Yrotation Xrotation
                                JOINT RightHandThumb2
                                {
                                    OFFSET -0.137157 -0.025101 0.077902
                                    CHANNELS 3 Zrotation Yrotation Xrotation
                                    JOINT RightHandThumb3
                                    {
                                        OFFSET -0.152256 -0.099523 0.021279
                                        CHANNELS 3 Zrotation Yrotation Xrotation
                                        End Site
                                        {
                                            OFFSET -0.232805 -0.056567 0.120160
                                        }
                                    }
                                }
                            }
                            JOINT RightHandFore1
                            {
                                OFFSET -0.767344 -0.015991 0.196679
                                CHANNELS 3 Zrotation Yrotation Xrotation
                                JOINT RightHandFore2
                                {
                                    OFFSET -0.215671 0.000035 0.021974
                                    CHANNELS 3 Zrotation Yrotation Xrotation
                                    JOINT RightHandFore3
                                    {
                                        OFFSET -0.128736 -0.004019 0.013146
                                        CHANNELS 3 Zrotation Yrotation Xrotation
                                        End Site
                                        {
                                            OFFSET -0.191828 -0.001365 0.023809
                                        }
                                    }
                                }
                            }
                            JOINT RightHandMiddle1
                            {
                                OFFSET -0.709887 -0.008302 0.018525
                                CHANNELS 3 Zrotation Yrotation Xrotation
                                JOINT RightHandMiddle2
                                {
                                    OFFSET -0.196796 -0.145712 0.010051
                                    CHANNELS 3 Zrotation Yrotation Xrotation
                                    JOINT RightHandMiddle3
                                    {
                                        OFFSET -0.085696 -0.118408 0.004483
                                        CHANNELS 3 Zrotation Yrotation Xrotation
                                        End Site
                                        {
                                            OFFSET -0.159984 -0.173106 0.008347
                                        }
                                    }
                                }
                            }
                            JOINT RightHandRing1
                            {
                                OFFSET -0.743819 -0.005785 -0.153669
                                CHANNELS 3 Zrotation Yrotation Xrotation
                                JOINT RightHandRing2
                                {
                                    OFFSET -0.260983 -0.237550 -0.013832
                                    CHANNELS 3 Zrotation Yrotation Xrotation
                                    JOINT RightHandRing3
                                    {
                                        OFFSET -0.065480 -0.118891 -0.013505
                                        CHANNELS 3 Zrotation Yrotation Xrotation
                                        End Site
                                        {
                                            OFFSET -0.031375 -0.115160 -0.013190
                                        }
                                    }
                                }
                            }
                            JOINT RightHandLittle1
                            {
                                OFFSET -0.689403 -0.053298 -0.308303
                                CHANNELS 3 Zrotation Yrotation Xrotation
                                JOINT RightHandLittle2
                                {
                                    OFFSET -0.130607 -0.142393 -0.026856
                                    CHANNELS 3 Zrotation Yrotation Xrotation
                                    JOINT RightHandLittle3
                                    {
                                        OFFSET -0.069191 -0.096807 -0.018347
                                        CHANNELS 3 Zrotation Yrotation Xrotation
                                        End Site
                                        {
                                            OFFSET -0.131855 -0.133725 -0.031945
                                        }
                                    }
                                }
                            }
                        }
                    }
                }
            }
        }
    }
    JOINT LeftHip
    {
        OFFSET 0.685143 0.673822 -0.044491
        CHANNELS 3 Zrotation Yrotation Xrotation
        JOINT LeftKnee
        {
            OFFSET 0.085364 -3.750208 0.017676
            CHANNELS 3 Zrotation Yrotation Xrotation
            JOINT LeftAnkle
            {
                OFFSET 0.094583 -4.155206 0.019585
                CHANNELS 3 Zrotation Yrotation Xrotation
                JOINT LeftToe
                {
                    OFFSET -0.000000 -0.395925 0.621478
                    CHANNELS 3 Zrotation Yrotation Xrotation
                    End Site
                    {
                        OFFSET -0.000000 -0.077878 0.321152
                    }
                }
            }
        }
    }
    JOINT RightHip
    {
        OFFSET -0.685143 0.673822 -0.044492
        CHANNELS 3 Zrotation Yrotation Xrotation
        JOINT RightKnee
        {
            OFFSET -0.085364 -3.750208 0.017677
            CHANNELS 3 Zrotation Yrotation Xrotation
            JOINT RightAnkle
            {
                OFFSET -0.094583 -4.155206 0.019585
                CHANNELS 3 Zrotation Yrotation Xrotation
                JOINT RightToe
                {
                    OFFSET -0.000000 -0.395925 0.621478
                    CHANNELS 3 Zrotation Yrotation Xrotation
                    End Site
                    {
                        OFFSET -0.000000 -0.077878 0.321152
                    }
                }
            }
        }
    }
}
MOTION
Frames: 4
Frame Time: 0.033333
-2.649002 7.376770 -4.739930 177.001099 9.263492 167.262589 1.024840 4.150311 0.481201 2.503324 -0.794079 -4.179076 -3.797557 1.241746 -5.209224 -0.026509 0.514825 -7.401920 12.092111 -3.928866 0.187792 29.301783 -28.499878 -90.975403 1.692489 -73.583954 -2.270263 -18.717716 -15.834050 -58.927521 -0.000003 -0.000002 -0.000009 -21.767408 21.721548 -27.693354 -26.046124 37.910999 -20.205263 -15.253474 -9.255665 1.047725 -10.485280 3.952824 -1.919379 0.199289 0.289783 -0.918307 -43.453190 -1.847847 -8.443348 -90.072960 2.028356 -1.085007 -110.602890 1.659738 -3.999434 -16.695768 -1.029040 -10.285046 -57.430866 11.205483 -9.498465 -93.126953 -4.775390 4.019124 -48.644573 -13.183744 -5.795986 -70.997902 0.933970 -14.685231 -88.763741 -6.303184 11.108439 -12.000701 10.145944 -0.237582 -46.428921 42.352352 -86.103821 -0.530647 56.217064 -1.000754 47.630566 15.040085 -10.392693 0.000006 0.000003 0.000015 1.765039 -1.593636 38.117558 12.205819 -17.519289 39.320362 5.984092 8.950822 -0.848694 -8.792076 1.710507 -0.520259 -4.929474 0.808682 -0.014369 53.626915 3.608840 -8.005218 58.534393 4.384925 5.321906 110.521034 2.597113 9.567984 49.391338 6.338994 -4.545665 56.686855 -5.912529 9.717676 93.210411 -14.510708 -17.079636 42.372417 12.228083 -8.349379 70.237267 -17.208191 0.934844 88.692558 -28.330719 -30.343836 -10.472815 -1.380352 -9.224524 0.658197 1.132833 60.311283 -0.902948 12.524895 -46.447193 -0.000001 -0.000003 -0.000001 6.131104 2.493075 -34.513023 -0.993560 -1.266517 76.228439 -14.063962 -20.004581 -20.618988 0.000001 -0.000003 0.000010
-2.658204 7.394511 -4.735706 177.250671 9.616931 168.327377 1.653320 4.472270 1.026005 2.778719 -0.845897 -4.454183 -3.980966 1.374277 -5.757918 -0.031293 0.607715 -8.386973 12.289669 -3.119374 0.211531 29.054464 -31.167439 -102.740776 1.303895 -70.232224 -1.861416 -16.464045 0.729968 -58.634007 -0.000003 0.000008 -0.000007 -21.767403 21.721548 -27.693357 -26.046127 37.910999 -20.205267 -15.253472 -9.255666 1.047728 -10.485281 3.952823 -1.919379 0.199287 0.289781 -0.918306 -43.453171 -1.847854 -8.443342 -90.072968 2.028356 -1.085008 -110.602890 1.659737 -3.999436 -16.695768 -1.029045 -10.285040 -57.430866 11.205482 -9.498465 -93.126953 -4.775391 4.019123 -48.644550 -13.183745 -5.795983 -70.997902 0.933972 -14.685228 -88.763741 -6.303184 11.108440 -10.946316 11.294966 -0.240545 -42.945873 43.083111 -74.737717 -0.563132 57.221298 -1.039667 44.170044 14.075937 -9.185730 0.000014 0.000012 -0.000006 1.765038 -1.593637 38.117550 12.205812 -17.519285 39.320362 5.984086 8.950826 -0.848699 -8.792077 1.710510 -0.520261 -4.929475 0.808674 -0.014367 53.626915 3.608849 -8.005218 58.534393 4.384923 5.321911 110.521034 2.597116 9.567981 49.391354 6.339003 -4.545671 56.686855 -5.912528 9.717682 93.210419 -14.510710 -17.079639 42.372433 12.228092 -8.349380 70.237274 -17.208189 0.934847 88.692558 -28.330721 -30.343826 -10.273371 -1.404944 -9.864718 0.644368 1.124838 59.609425 -0.994491 12.630986 -46.189034 0.000001 0.000006 -0.000004 6.768583 2.470210 -32.960335 -0.903193 -1.240890 72.099953 -11.046212 -17.020390 -23.805925 0.000000 -0.000002 -0.000004
-2.666562 7.415767 -4.731274 177.505264 9.920483 169.418869 2.253219 4.768102 1.625437 2.990882 -0.891149 -4.656633 -4.144806 1.483905 -6.284325 -0.035207 0.683788 -9.372555 12.329857 -2.321209 0.230003 30.021673 -33.062256 -112.326019 1.288436 -70.069672 -1.844973 -16.010118 14.081807 -57.905273 -0.000007 0.000008 -0.000009 -21.767408 21.721548 -27.693354 -26.046129 37.911007 -20.205263 -15.253468 -9.255663 1.047730 -10.485273 3.952823 -1.919380 0.199287 0.289782 -0.918307 -43.453178 -1.847854 -8.443338 -90.072968 2.028354 -1.085007 -110.602890 1.659738 -3.999436 -16.695774 -1.029048 -10.285042 -57.430866 11.205483 -9.498466 -93.126953 -4.775389 4.019123 -48.644569 -13.183743 -5.795980 -70.997902 0.933972 -14.685231 -88.763741 -6.303182 11.108441 -10.451575 11.608819 -0.245699 -42.116657 39.908783 -65.333679 -0.641412 59.398926 -1.131829 38.657192 13.265163 -9.034882 -0.000003 0.000005 -0.000008 1.765038 -1.593636 38.117554 12.205817 -17.519283 39.320366 5.984081 8.950819 -0.848695 -8.792077 1.710517 -0.520259 -4.929474 0.808672 -0.014367 53.626915 3.608850 -8.005218 58.534393 4.384924 5.321915 110.521034 2.597119 9.567986 49.391338 6.339003 -4.545660 56.686855 -5.912525 9.717678 93.210411 -14.510705 -17.079638 42.372414 12.228091 -8.349377 70.237274 -17.208183 0.934844 88.692558 -28.330721 -30.343836 -10.051561 -1.428987 -10.488128 0.629174 1.115791 58.832394 -1.039724 12.704144 -45.882504 -0.000002 -0.000008 -0.000000 7.312162 2.443215 -31.241182 -0.806620 -1.205439 67.578171 -7.321388 -14.163673 -26.507984 -0.000001 -0.000005 0.000004
-2.673989 7.440203 -4.726560 177.758194 10.177648 170.526199 2.818285 5.029893 2.273366 3.137827 -0.931369 -4.762503 -4.274330 1.579251 -4.691560 -0.038703 0.751645 -6.412606 10.963305 -4.674216 0.206821 19.558817 -33.006050 -89.621010 1.576766 -72.713036 -2.149292 -15.164557 10.215653 -48.921940 -0.000014 0.000009 -0.000004 -21.558584 21.428020 -27.448679 -25.926386 37.716423 -20.255264 -15.253922 -9.149362 1.040209 -10.561139 3.941396 -1.901323 0.157047 0.286973 -0.904536 -42.705563 -1.834796 -8.360326 -89.392311 1.986224 -1.066172 -109.686668 1.615707 -3.947002 -15.952168 -0.986988 -10.237071 -56.754684 11.094051 -9.369148 -92.201683 -4.730144 4.058079 -47.894192 -13.050580 -5.793501 -70.375046 0.976339 -14.516706 -87.968269 -6.165077 11.045852 -10.103575 11.740870 -0.249429 -38.803234 41.214169 -64.834129 -0.731490 61.553967 -1.235482 31.916567 12.234322 -8.900372 0.000009 0.000002 0.000003 1.606616 -1.510699 37.775311 12.122083 -17.293196 39.277992 5.987255 8.844719 -0.838764 -8.713418 1.695858 -0.515702 -4.885448 0.801653 -0.014258 52.881634 3.581319 -7.925708 57.851231 4.361845 5.265476 109.603165 2.590530 9.502211 48.648846 6.277703 -4.527917 56.026138 -5.854030 9.654530 92.253716 -14.442505 -16.894659 41.625122 12.095981 -8.332051 69.590164 -17.105288 0.978190 87.800507 -28.174946 -29.978893 -9.815172 -1.452182 -11.091259 0.612827 1.105741 57.989155 -1.030020 12.760637 -45.528168 -0.000001 -0.000004 0.000000 7.694942 2.416672 -29.606855 -0.713749 -1.162794 63.086277 -4.236671 -11.909339 -28.233030 -0.000001 -0.000003 -0.000001
